<?xml version="1.0" standalone="no"?><!DOCTYPE svg PUBLIC "-//W3C//DTD SVG 1.1//EN" "http://www.w3.org/Graphics/SVG/1.1/DTD/svg11.dtd"><svg class="icon" width="128px" height="128.00px" viewBox="0 0 1024 1024" version="1.1" xmlns="http://www.w3.org/2000/svg"><path d="M841.142857 566.857143l0 274.285714q0 14.848-10.861714 25.709714t-25.709714 10.861714l-219.428571 0 0-219.428571-146.285714 0 0 219.428571-219.428571 0q-14.848 0-25.709714-10.861714t-10.861714-25.709714l0-274.285714q0-0.585143 0.292571-1.718857t0.292571-1.718857l328.557714-270.848 328.557714 270.848q0.585143 1.133714 0.585143 3.437714zM968.557714 527.433143l-35.437714 42.276571q-4.571429 5.156571-11.995429 6.290286l-1.718857 0q-7.424 0-11.995429-3.986286l-395.446857-329.728-395.446857 329.728q-6.838857 4.571429-13.714286 3.986286-7.424-1.133714-11.995429-6.290286l-35.437714-42.276571q-4.571429-5.705143-3.986286-13.421714t6.290286-12.288l410.843429-342.272q18.285714-14.848 43.446857-14.848t43.446857 14.848l139.446857 116.553143 0-111.433143q0-8.009143 5.156571-13.129143t13.129143-5.156571l109.714286 0q8.009143 0 13.129143 5.156571t5.156571 13.129143l0 233.142857 125.147429 104.009143q5.705143 4.571429 6.290286 12.288t-3.986286 13.421714z" fill="#515151" /></svg>