<?xml version="1.0" standalone="no"?><!DOCTYPE svg PUBLIC "-//W3C//DTD SVG 1.1//EN" "http://www.w3.org/Graphics/SVG/1.1/DTD/svg11.dtd"><svg class="icon" width="128px" height="128.00px" viewBox="0 0 1024 1024" version="1.1" xmlns="http://www.w3.org/2000/svg"><path d="M461.15674 863.9082c0-29.226871 22.765161-53.138258 50.840704-53.138258 28.079369 0 50.835604 23.911387 50.835604 53.138258 0 29.572396-22.765161 53.473584-50.835604 53.473584C483.912976 917.383058 461.15674 893.481871 461.15674 863.9082L461.15674 863.9082zM302.199692 106.595267 721.814323 106.595267c24.682764 0 44.804845 20.883258 44.804845 47.046299l0 524.72707c0 26.192366-20.120806 47.020798-44.804845 47.020798L302.199692 725.389433c-24.677664 0-44.789545-20.828433-44.789545-47.020798l0-524.72707C257.410147 127.478524 277.522028 106.595267 302.199692 106.595267L302.199692 106.595267zM155.738938 938.629692c0 47.042474 36.421707 85.370308 81.550402 85.370308l549.765559 0c44.779345 0 81.206152-38.32911 81.206152-85.370308L868.261051 85.370308C868.261051 38.309985 831.834245 0 787.053625 0L237.299541 0C192.170845 0 155.749138 38.309985 155.749138 85.370308l0 853.259383L155.738938 938.629692zM155.738938 938.629692" /></svg>