<?xml version="1.0" standalone="no"?><!DOCTYPE svg PUBLIC "-//W3C//DTD SVG 1.1//EN" "http://www.w3.org/Graphics/SVG/1.1/DTD/svg11.dtd"><svg class="icon" width="128px" height="128.00px" viewBox="0 0 1024 1024" version="1.1" xmlns="http://www.w3.org/2000/svg"><path d="M781.0192 627.9104c-35.4144 0-64.1056-29.5072-64.1056-65.9456 0-36.4336 28.6912-65.9664 64.1056-65.9664 35.4208 0 64.1376 29.5328 64.1376 65.9664 0.0288 36.4384-28.7184 65.9456-64.1376 65.9456M216.96 423.672l55.9664-148.0512c6.984-21.1552 17.4704-36.4624 42.0064-36.72h391.632c24.4208 0.256 34.9104 15.5648 41.888 36.72l55.9712 148.0512H216.96m23.3776 204.2384c-35.3648 0-64.112-29.5072-64.112-65.9456 0-36.4336 28.7456-65.9664 64.112-65.9664 35.3888 0 64.136 29.5328 64.136 65.9664 0 36.4384-28.7472 65.9456-64.136 65.9456m641.0016-199.7376l-74.2864-191.3824c-13.9616-36.4624-44.2352-67.5984-101.4208-67.5984h-104.8992s-34.0864-80.1392-51.5856-80.1392h-75.6688c-17.4672 0-51.5584 80.1392-51.5584 80.1392h-106.224c-57.0976 0-87.4032 31.16-101.3376 67.5984L140.048 428.1728c-29.456 3.7616-81.6352 38.2896-81.6352 103.6576v243.472h83.616v60.6384c0 95.7664 113.0928 94.6528 113.0928 0v-60.6112h511.1152v60.6416c0 94.6512 113.1216 95.7616 113.1216 0v-60.6416h83.584V531.8624c0-65.3968-52.1792-99.9248-81.6032-103.6896"  /></svg>